<?xml version="1.0" encoding="UTF-8"?><svg id="Layer_2" xmlns="http://www.w3.org/2000/svg" viewBox="0 0 660.01 736.36"><defs><style>.cls-1{fill:#fff;}.cls-2{font-family:Poppins-SemiBold, Poppins;font-size:112px;font-weight:600;}.cls-3{stroke:#fff;}.cls-3,.cls-4{stroke-width:20px;}.cls-3,.cls-4,.cls-5{fill:none;stroke-miterlimit:10;}.cls-6{font-family:Poppins-Medium, Poppins;font-size:36px;font-weight:500;}.cls-4,.cls-5{stroke:#000;}.cls-5{stroke-width:12px;}</style></defs><g id="Layer_1-2"><path d="m591.46,261.52c.09,144.25-117.15,261.61-261.38,261.63-144.53.02-261.66-117.03-261.69-261.52C68.37,117.12,185.53-.07,329.97,0c144.35.07,261.4,117.13,261.49,261.52Zm-120.08-11.37h87.13c-2.53-45.14-16.83-85.89-43.15-122.73-19.28,12.6-39.42,23.05-60.75,31.58,9.94,29.64,15.45,59.87,16.77,91.15Zm-370.07-.02h87.11c.65-15.55,2.32-30.89,5.11-46.09,2.8-15.27,6.73-30.25,11.63-45.08-21.39-8.53-41.45-18.98-60.71-31.55-26.29,36.81-40.64,77.54-43.14,122.72Zm103.12,114.34c-4.84-15.01-8.61-29.96-11.31-45.18-2.71-15.29-4.18-30.72-4.83-46.26h-86.99c2.5,45.15,16.84,85.87,43.14,122.71,19.02-12.43,38.84-22.77,59.99-31.26Zm267.03-91.42c-1.04,31.29-6.4,61.68-16.1,91.41,21.15,8.48,41.01,18.88,59.98,31.24,17-23.59,29.03-49.14,36.21-76.96,3.86-14.96,6.2-30.15,6.88-45.68h-86.97Zm-260.46,0c1.05,28.74,5.89,56.5,14.78,83.71,30.33-9.76,61.16-15.09,92.73-16.24v-67.48h-107.52Zm130.38,67.5c31.72,1.12,62.47,6.5,92.43,16.13,6.78-13.93,17.11-73.51,14.52-83.63h-106.95v67.5Zm-114.66-173.86c-7.13,15.6-17.71,74.22-15.16,83.41h106.89v-67.51c-15.69-.59-31.12-2.16-46.44-4.81-15.32-2.65-30.37-6.39-45.3-11.09Zm206.57-.06c-30.01,9.54-60.58,14.86-91.78,15.95-.52,4.28-.32,65.64.17,67.48,3.56.48,104.99.32,107.04-.22-1.26-28.33-6.31-55.98-15.42-83.21Zm-199.66,211.39c.49,1.2.86,2.16,1.26,3.1,17.59,41.25,43.04,76.88,76.25,107.01,2.29,2.08,4.7,1.85,7.34,1.84v-126.74c-28.97,1.04-57.07,5.97-84.85,14.8Zm192.59,0c-27.82-8.82-55.89-13.79-84.67-14.77-.56,4.08-.38,124.97.13,126.74,3.27.4,5.78-.7,8.28-3,32.24-29.62,57.09-64.45,74.44-104.64.57-1.33,1.12-2.67,1.81-4.33Zm-107.78-218.13V33.21c-2.2-.05-2.22-.08-3.43.98-1.94,1.7-3.87,3.41-5.77,5.15-31.8,29.19-56.25,63.61-73.49,103.16-.4.91-.71,1.86-1.12,2.93,27.41,8.6,55.19,13.48,83.81,14.46Zm106.82-14.48c-.52-1.25-.86-2.12-1.23-2.97-14.29-32.96-33.76-62.51-58.59-88.46-6.47-6.76-13.47-13-20.24-19.47-1.01-.97-2.08-1.81-3.78-1.27v126.65c28.62-.99,56.37-5.84,83.83-14.48Zm-42.15-106.23c26.95,29.12,48.16,61.86,63.45,98.34,9.37-2.21,48.87-22.68,54.3-28.15-32.06-35.44-71.18-58.98-117.76-70.18Zm-170.01,98.54c1.54-3.46,2.97-6.75,4.47-10,1.47-3.2,2.97-6.38,4.54-9.53,1.6-3.23,3.25-6.44,4.95-9.61,1.71-3.18,3.47-6.32,5.28-9.44,1.77-3.04,3.58-6.06,5.45-9.04,1.91-3.06,3.88-6.08,5.89-9.07,1.96-2.92,3.97-5.82,6.03-8.67,2.11-2.92,4.27-5.81,6.48-8.66,2.21-2.85,4.46-5.67,6.76-8.45,2.24-2.71,4.54-5.38,6.86-8.03,2.32-2.64,4.69-5.24,7.04-7.86-23.08,5.09-44.5,13.82-64.58,25.88-20.05,12.05-37.84,26.81-53.54,44.44,17.4,11.21,35.33,20.49,54.36,28.05Zm-.84,248.01c-18.87,7.62-36.56,16.75-53.51,27.74,15.47,17.38,32.89,31.9,52.47,43.8,19.49,11.84,40.27,20.6,62.51,25.92-26.09-28.88-46.56-61.21-61.47-97.46Zm288.85,27.76c-17.11-11.05-34.78-20.22-53.58-27.75-7.42,18.08-16.21,35.15-26.52,51.42-10.36,16.36-22.12,31.66-35.04,46.13,45.39-11.56,83.57-34.89,115.13-69.81Z"/><path class="cls-1" d="m233.55,261.91c78.51-12.31,86.41-22.3,96.15-121.56,9.74,99.26,17.64,109.25,96.15,121.56-78.51,12.31-86.41,22.3-96.15,121.56-9.74-99.26-17.64-109.25-96.15-121.56Z"/><path class="cls-4" d="m233.55,261.91c78.51-12.31,86.41-22.3,96.15-121.56,9.74,99.26,17.64,109.25,96.15,121.56-78.51,12.31-86.41,22.3-96.15,121.56-9.74-99.26-17.64-109.25-96.15-121.56Z"/><path class="cls-3" d="m181.35,261.7c121.14-19.05,133.32-34.5,148.35-188.08,15.03,153.58,27.21,169.03,148.35,188.08-121.14,19.05-133.32,34.5-148.35,188.08-15.03-153.58-27.21-169.03-148.35-188.08Z"/><path class="cls-4" d="m132.29,261.91c161.2-25.31,177.41-45.82,197.41-249.81,20,203.99,36.21,224.51,197.41,249.81-161.2,25.31-177.41,45.82-197.41,249.81-20-203.99-36.21-224.51-197.41-249.81Z"/><text class="cls-2" transform="translate(0 660.41)"><tspan x="0" y="0">SHAPESHIFT</tspan></text><text class="cls-6" transform="translate(52.18 715.41)"><tspan x="0" y="0">DIGITAL IDENTITY MANAGEMENT</tspan></text><path class="cls-5" d="m82.96,255.76c115.84,4.16,211-31.91,212.75-80.65"/><path class="cls-5" d="m576.71,255.76c-115.84,4.16-211-31.91-212.75-80.65"/><path class="cls-5" d="m82.96,268.44c115.84-4.16,211,31.91,212.75,80.65"/><path class="cls-5" d="m576.71,268.44c-115.84-4.16-211,31.91-212.75,80.65"/></g></svg>